HIERARCHY
ROOT Hips
{
  OFFSET 80.0379 26.9372 -1.03879
  CHANNELS 6 Xposition Yposition Zposition Zrotation Xrotation Yrotation
  JOINT LeftHip
  {
    OFFSET 3.43 0 0
    CHANNELS 6 Xposition Yposition Zposition Zrotation Xrotation Yrotation
    JOINT LeftKnee
    {
      OFFSET 0 -18.47 0
      CHANNELS 6 Xposition Yposition Zposition Zrotation Xrotation Yrotation
      JOINT LeftAnkle
      {
        OFFSET 0 -17.95 0
        CHANNELS 6 Xposition Yposition Zposition Zrotation Xrotation Yrotation
        End Site
        {
          OFFSET 0 -3.12 0
        }
      }
    }
  }
  JOINT RightHip
  {
    OFFSET -3.43 0 0
    CHANNELS 6 Xposition Yposition Zposition Zrotation Xrotation Yrotation
    JOINT RightKnee
    {
      OFFSET 0 -18.47 0
      CHANNELS 6 Xposition Yposition Zposition Zrotation Xrotation Yrotation
      JOINT RightAnkle
      {
        OFFSET 0 -17.95 0
        CHANNELS 6 Xposition Yposition Zposition Zrotation Xrotation Yrotation
        End Site
        {
          OFFSET 0 -3.12 0
        }
      }
    }
  }
  JOINT Chest
  {
    OFFSET 0 4.57 0
    CHANNELS 6 Xposition Yposition Zposition Zrotation Xrotation Yrotation
    JOINT CS_BVH
    {
      OFFSET 0 6.57 0
      CHANNELS 6 Xposition Yposition Zposition Zrotation Xrotation Yrotation
      JOINT LeftCollar
      {
        OFFSET 1.06 4.19 1.76
        CHANNELS 6 Xposition Yposition Zposition Zrotation Xrotation Yrotation
        JOINT LeftShoulder
        {
          OFFSET 5.81 0 0
          CHANNELS 6 Xposition Yposition Zposition Zrotation Xrotation Yrotation
          JOINT LeftElbow
          {
            OFFSET 0 -12.08 0
            CHANNELS 6 Xposition Yposition Zposition Zrotation Xrotation Yrotation
            JOINT LeftWrist
            {
              OFFSET 0 -9.82 0
              CHANNELS 6 Xposition Yposition Zposition Zrotation Xrotation Yrotation
              End Site
              {
                OFFSET 0 -7.37 0
              }
            }
          }
        }
      }
      JOINT RightCollar
      {
        OFFSET -1.06 4.19 1.76
        CHANNELS 6 Xposition Yposition Zposition Zrotation Xrotation Yrotation
        JOINT RightShoulder
        {
          OFFSET -6.06 0 0
          CHANNELS 6 Xposition Yposition Zposition Zrotation Xrotation Yrotation
          JOINT RightElbow
          {
            OFFSET 0 -11.08 0
            CHANNELS 6 Xposition Yposition Zposition Zrotation Xrotation Yrotation
            JOINT RightWrist
            {
              OFFSET 0 -9.82 0
              CHANNELS 6 Xposition Yposition Zposition Zrotation Xrotation Yrotation
              End Site
              {
                OFFSET 0 -7.14001 0
              }
            }
          }
        }
      }
      JOINT Neck
      {
        OFFSET 0 4.05 0
        CHANNELS 6 Xposition Yposition Zposition Zrotation Xrotation Yrotation
        JOINT Head
        {
          OFFSET 0 5.19 0
          CHANNELS 6 Xposition Yposition Zposition Zrotation Xrotation Yrotation
          End Site
          {
            OFFSET 0 4.14001 0
          }
        }
      }
    }
  }
}
MOTION
Frames:	7
Frame Time:	0.0333333
-78.3786 30.4523 -0.496544 9.02361 -4.06972 87.5544 3.43 0 -1.33227e-015 -6.56681 -2.66917 0.528826 -5.82645e-013 -18.47 -6.39488e-014 3.35169 12.3227 -3.81935 -9.58478e-012 -17.95 1.47438e-013 0.106671 -0.830718 0.809743 -3.43 2.13163e-014 2.22045e-015 -0.767568 10.5313 -13.7448 -6.98108e-013 -18.47 0 56.1452 82.0756 -67.7983 -1.01537e-011 -17.95 2.88658e-013 -10.4229 -34.7051 4.16777 1.68754e-014 4.57 -1.46549e-014 3.49576 12.3533 4.74342 4.88498e-014 6.57 4.88498e-015 -0.464549 -1.70496 4.73024 1.06 4.19 1.76 -4.74091 3.16515 7.5414 5.81 2.84217e-013 5.9508e-014 27.1348 -10.5176 -34.9813 3.20028e-011 -12.08 6.74572e-012 -18.4691 -11.5902 -10.3625 6.05979e-010 -9.82 1.09738e-010 -1.27748e-010 -4.07772e-009 1.43752e-009 -1.06 4.19 1.76 8.91639 -2.45352 -3.59809 -6.06 -2.62901e-013 -7.99361e-014 -27.9839 -21.1968 35.1018 3.00346e-011 -11.08 -6.05027e-012 1.51243 -25.3301 -2.0096 6.22833e-010 -9.82 -1.07956e-010 6.49647e-010 -5.17957e-011 -4.31105e-010 1.1724e-013 4.05 8.88178e-015 1.68252 -16.5515 0.223881 3.94351e-013 5.19 1.9984e-014 -3.91367 2.24125 1.55206 
-75.8978 31.01 -0.42034 9.5678 -4.96824 90.1883 3.43 0 -1.33227e-015 -6.17119 2.18944 -0.614498 -5.82645e-013 -18.47 -6.39488e-014 3.98592 11.5018 -2.54105 -9.58478e-012 -17.95 1.47438e-013 -0.157405 -3.33484 0.936635 -3.43 2.13163e-014 2.22045e-015 0.795389 3.28246 -14.4327 -6.98108e-013 -18.47 0 66.8717 78.5892 -77.0242 -1.01537e-011 -17.95 2.88658e-013 -12.2952 -33.0087 3.86311 1.68754e-014 4.57 -1.46549e-014 4.19602 12.4258 2.83648 4.88498e-014 6.57 4.88498e-015 0.572844 -2.37279 3.22954 1.06 4.19 1.76 -4.11793 3.07266 7.22225 5.81 2.84217e-013 5.9508e-014 24.6737 -15.5866 -38.6166 3.20028e-011 -12.08 6.74572e-012 -14.2801 -15.3974 -9.46046 6.05979e-010 -9.82 1.09738e-010 -1.27748e-010 -4.07772e-009 1.43752e-009 -1.06 4.19 1.76 9.2789 -2.52029 -3.38025 -6.06 -2.62901e-013 -7.99361e-014 -28.6397 -19.3743 31.5674 3.00346e-011 -11.08 -6.05027e-012 7.59255 -20.9039 -0.929107 6.22833e-010 -9.82 -1.07956e-010 6.49647e-010 -5.17957e-011 -4.31105e-010 1.1724e-013 4.05 8.88178e-015 2.32013 -15.0172 0.431543 3.94351e-013 5.19 1.9984e-014 -4.02784 1.75306 2.10383 
-73.6982 31.2294 -0.396221 9.75297 -4.5376 92.6337 3.43 0 -1.33227e-015 -7.0797 4.75149 -0.752001 -5.82645e-013 -18.47 -6.39488e-014 5.17638 13.6312 -1.67751 -9.58478e-012 -17.95 1.47438e-013 -0.308429 -6.88219 0.932886 -3.43 2.13163e-014 2.22045e-015 1.72738 -5.06949 -14.2938 -6.98108e-013 -18.47 0 61.1646 74.883 -63.7982 -1.01537e-011 -17.95 2.88658e-013 -14.7358 -29.7783 3.56512 1.68754e-014 4.57 -1.46549e-014 2.07959 13.0687 1.92477 4.88498e-014 6.57 4.88498e-015 2.8485 -3.56372 1.49547 1.06 4.19 1.76 -3.00234 2.8941 6.60027 5.81 2.84217e-013 5.9508e-014 22.2101 -19.9746 -42.0992 3.20028e-011 -12.08 6.74572e-012 -9.60811 -18.7529 -8.13575 6.05979e-010 -9.82 1.09738e-010 -1.27748e-010 -4.07772e-009 1.43752e-009 -1.06 4.19 1.76 9.80363 -2.60665 -3.75984 -6.06 -2.62901e-013 -7.99361e-014 -29.6087 -16.9448 28.812 3.00346e-011 -11.08 -6.05027e-012 11.8744 -17.3362 -0.525179 6.22833e-010 -9.82 -1.07956e-010 6.49647e-010 -5.17957e-011 -4.31105e-010 1.1724e-013 4.05 8.88178e-015 3.42669 -13.3781 0.242979 3.94351e-013 5.19 1.9984e-014 -4.57365 1.06531 2.66026 
-71.3349 31.2101 -0.378001 9.3809 -3.39793 94.6041 3.43 0 -1.33227e-015 -8.61204 6.09149 0.225611 -5.82645e-013 -18.47 -6.39488e-014 6.1922 16.8278 0.126494 -9.58478e-012 -17.95 1.47438e-013 -1.02627 -11.4819 0.883372 -3.43 2.13163e-014 2.22045e-015 3.22113 -13.6727 -12.4534 -6.98108e-013 -18.47 0 42.4086 69.5606 -37.2084 -1.01537e-011 -17.95 2.88658e-013 -14.0791 -25.4907 3.62034 1.68754e-014 4.57 -1.46549e-014 -0.65877 11.9948 1.45249 4.88498e-014 6.57 4.88498e-015 4.87421 -3.50801 -0.0160372 1.06 4.19 1.76 -1.83782 2.68394 5.93122 5.81 2.84217e-013 5.9508e-014 20.4225 -24.5103 -46.2046 3.20028e-011 -12.08 6.74572e-012 -4.53189 -22.3679 -6.52438 6.05979e-010 -9.82 1.09738e-010 -1.27748e-010 -4.07772e-009 1.43752e-009 -1.06 4.19 1.76 10.412 -2.71013 -4.1129 -6.06 -2.62901e-013 -7.99361e-014 -30.6714 -13.633 26.7517 3.00346e-011 -11.08 -6.05027e-012 13.6285 -15.1429 -0.469656 6.22833e-010 -9.82 -1.07956e-010 6.49647e-010 -5.17957e-011 -4.31105e-010 1.1724e-013 4.05 8.88178e-015 4.30733 -12.7808 0.132724 3.94351e-013 5.19 1.9984e-014 -4.60787 0.703193 2.93677 
-68.8367 30.9615 -0.382775 8.79073 -1.04002 96.6607 3.43 0 -1.33227e-015 -10.6322 7.75997 2.06455 -5.82645e-013 -18.47 -6.39488e-014 7.2677 20.4568 -0.292395 -9.58478e-012 -17.95 1.47438e-013 -1.71586 -16.147 0.81962 -3.43 2.13163e-014 2.22045e-015 3.2057 -19.748 -8.29456 -6.98108e-013 -18.47 0 28.2618 59.0908 -15.5813 -1.01537e-011 -17.95 2.88658e-013 -12.0598 -21.9914 3.80474 1.68754e-014 4.57 -1.46549e-014 -5.17175 10.5727 0.924534 4.88498e-014 6.57 4.88498e-015 6.98641 -3.86889 -1.63041 1.06 4.19 1.76 -0.936651 2.51412 5.24884 5.81 2.84217e-013 5.9508e-014 19.6788 -28.1465 -50.0802 3.20028e-011 -12.08 6.74572e-012 2.05009 -25.8469 -4.06194 6.05979e-010 -9.82 1.09738e-010 -1.27748e-010 -4.07772e-009 1.43752e-009 -1.06 4.19 1.76 10.8156 -2.78165 -4.36942 -6.06 -2.62901e-013 -7.99361e-014 -31.2694 -9.92815 24.8508 3.00346e-011 -11.08 -6.05027e-012 13.7735 -14.1274 -0.146308 6.22833e-010 -9.82 -1.07956e-010 6.49647e-010 -5.17957e-011 -4.31105e-010 1.1724e-013 4.05 8.88178e-015 5.48321 -12.456 -0.00104926 3.94351e-013 5.19 1.9984e-014 -4.61366 0.427405 3.26382 
-66.0335 30.6655 -0.294972 7.91546 0.671829 98.9208 3.43 0 -1.33227e-015 -10.9677 11.7005 3.72517 -5.82645e-013 -18.47 -6.39488e-014 8.08652 20.4291 -2.72779 -9.58478e-012 -17.95 1.47438e-013 -1.79065 -18.6746 0.853043 -3.43 2.13163e-014 2.22045e-015 1.25153 -22.7651 -4.41624 -6.98108e-013 -18.47 0 20.9989 40.918 -13.1851 -1.01537e-011 -17.95 2.88658e-013 -9.33168 -18.3129 4.05022 1.68754e-014 4.57 -1.46549e-014 -9.12226 8.28385 0.0474253 4.88498e-014 6.57 4.88498e-015 9.25855 -4.00543 -2.98965 1.06 4.19 1.76 0.191124 2.3025 4.72403 5.81 2.84217e-013 5.9508e-014 19.4471 -31.3327 -54.2086 3.20028e-011 -12.08 6.74572e-012 8.96146 -28.8007 -1.19911 6.05979e-010 -9.82 1.09738e-010 -1.27748e-010 -4.07772e-009 1.43752e-009 -1.06 4.19 1.76 10.813 -2.78694 -5.0203 -6.06 -2.62901e-013 -7.99361e-014 -31.772 -6.46042 23.2908 3.00346e-011 -11.08 -6.05027e-012 13.1233 -13.5597 0.049169 6.22833e-010 -9.82 -1.07956e-010 6.49647e-010 -5.17957e-011 -4.31105e-010 1.1724e-013 4.05 8.88178e-015 6.2485 -13.6655 0.132898 3.94351e-013 5.19 1.9984e-014 -4.70301 1.07552 3.53557 
-63.2132 30.6407 -0.0463485 7.99952 1.60895 101.26 3.43 0 -1.33227e-015 -9.26449 19.3094 3.64305 -5.82645e-013 -18.47 -6.39488e-014 7.22043 15.5791 -3.91492 -9.58478e-012 -17.95 1.47438e-013 -1.93643 -17.8358 1.03009 -3.43 2.13163e-014 2.22045e-015 8.35881 -16.8672 0.520359 -6.98108e-013 -18.47 0 -2.95324 6.93804 -22.2787 -1.01537e-011 -17.95 2.88658e-013 -1.98231 -4.28474 2.78016 1.68754e-014 4.57 -1.46549e-014 -12.2974 6.75589 -0.955459 4.88498e-014 6.57 4.88498e-015 11.8476 -4.07794 -4.31149 1.06 4.19 1.76 1.05806 2.11116 4.11354 5.81 2.84217e-013 5.9508e-014 20.2671 -33.6601 -56.9791 3.20028e-011 -12.08 6.74572e-012 15.6947 -30.4978 1.76047 6.05979e-010 -9.82 1.09738e-010 -1.27748e-010 -4.07772e-009 1.43752e-009 -1.06 4.19 1.76 11.231 -2.87166 -5.43586 -6.06 -2.62901e-013 -7.99361e-014 -32.5906 -3.1437 21.9164 3.00346e-011 -11.08 -6.05027e-012 12.4894 -12.9661 0.119529 6.22833e-010 -9.82 -1.07956e-010 6.49647e-010 -5.17957e-011 -4.31105e-010 1.1724e-013 4.05 8.88178e-015 7.87916 -14.7059 0.0436966 3.94351e-013 5.19 1.9984e-014 -5.81484 1.19111 4.32695 
